<?xml version="1.0" encoding="UTF-8"?>
<svg id="OBJECTS" xmlns="http://www.w3.org/2000/svg" viewBox="0 0 279.84 450.38">
  <defs>
    <style>
      .cls-1 {
        fill: #047857;
      }

      .cls-1, .cls-2, .cls-3 {
        stroke-width: 0px;
      }

      .cls-2 {
        fill: #10b981;
      }

      .cls-3 {
        fill: #065f46;
      }
    </style>
  </defs>
  <path class="cls-3" d="M200.84,131.3c-7.12,3.49-16.61,8.45-28.57,10.59,0,0,11.05.53,24.74-1.24-12.65,31.75-24.88,69.41-34.89,113.23-25.74,24.34-60.41,29.03-60.41,29.03,22.8,9.07,54.7-.27,54.7-.27-14.81,15.46-59.57,28.72-86.1,35.49-14.62,3.72-25.7,15.57-28.66,30.38-2.87,14.33-3.6,32.66,4.56,49.4,0,0-32.28,24.04-46.21,52.49.78-4.09,45.02-233.48,197.15-382.74l-1.55,1.24C69.92,177.43,17.12,362.13,17.12,362.13c-.73-1.66-1.1-3.47-1.1-5.26,0-1.26.18-2.52.53-3.72,1.97-6.79,3.63-12.4,6.13-19.64,3.43-10.13,3.71-21.09.77-31.4-7.5-26.38-7.74-52.38-5.6-67.38.35-2.34,1.06-4.6,2.12-6.7,0-.02.02-.04.02-.04.75,7.63,3.94,21.51,16.61,31.97,0,0-10.33-20.72-7.56-49.55v-.04c35.09-64.32,82.7-110.09,126.61-141.76,1.13,4.93,3.01,10.37,6.1,14.66,0,0-1.13-8.56-.09-18.91C221.08,22.87,272.22,7.34,273.75,6.46c-1.17,1.13-37.97,40.82-72.92,124.84Z"/>
  <path class="cls-1" d="M51.91,306.59S116.4,122.88,279.84,0c0,0-43.64,52.38-63.68,116.7,0,0-33.09,20.77-62.45,28.46,0,0,42.64-7.95,56.63-12.84,0,0-31.87,65.72-39.91,109.77,0,0-28.47,26.51-78.02,33.33,0,0,25.64,7.22,69.36-.23,0,0-30.84,25.81-88.36,37.17-22.11,4.37-29.72,17.83-29.72,17.83l8.22-23.6Z"/>
  <path class="cls-2" d="M136.88,301.87c-17.15,11.01-48.14,15.52-63.12,19.84-13.56,3.91-20.88,12.32-24.33,17.67-2.2,2.55-2.58,4.8-2.58,4.8,13.11-9.79,48.77-11.01,48.77-11.01-11.55-2.82-20.21-2.87-26.15-2.17,3.84-1.37,8.35-2.73,13.74-4.12,46.67-12.06,53.68-25,53.68-25Z"/>
</svg>